<?xml version="1.0" standalone="no"?>
<!DOCTYPE svg PUBLIC "-//W3C//DTD SVG 20010904//EN"
 "http://www.w3.org/TR/2001/REC-SVG-20010904/DTD/svg10.dtd">
<svg version="1.0" xmlns="http://www.w3.org/2000/svg"
 width="1258.000000pt" height="1258.000000pt" viewBox="0 0 1258.000000 1258.000000"
 preserveAspectRatio="xMidYMid meet">

<g transform="translate(0.000000,1258.000000) scale(0.100000,-0.100000)"
fill="#000000" stroke="none">
<path d="M6301 9458 c-20 -51 -177 -455 -251 -648 -43 -113 -165 -428 -270
-700 -106 -272 -225 -583 -266 -690 -41 -107 -86 -221 -99 -255 -13 -33 -139
-359 -281 -725 -385 -998 -456 -1182 -559 -1450 -139 -361 -139 -362 -155
-371 -8 -4 -134 -30 -280 -58 -379 -72 -1444 -277 -1778 -343 -57 -11 -105
-18 -107 -16 -1 1 -96 118 -210 258 -114 140 -216 264 -226 275 -19 19 -19 9
-19 -438 l0 -457 1558 0 1557 0 167 423 c92 232 250 631 351 887 102 256 214
539 250 630 l65 165 43 0 c24 0 74 -3 112 -7 l67 -7 0 279 0 278 33 20 c17 10
96 52 175 93 l143 74 142 -74 c78 -41 157 -83 175 -93 l32 -20 0 -278 0 -279
68 7 c37 4 86 7 110 7 l44 0 97 -245 c54 -135 135 -339 181 -455 45 -115 152
-385 237 -600 85 -214 191 -483 236 -597 l82 -208 1558 0 1557 0 0 455 c0 250
-2 455 -4 455 -2 0 -39 -44 -82 -98 -43 -53 -80 -99 -84 -102 -3 -3 -35 -41
-70 -85 -36 -44 -87 -107 -115 -140 -27 -33 -62 -75 -76 -94 l-26 -33 -129 25
c-71 14 -223 44 -339 66 -115 22 -363 70 -550 106 -635 123 -800 154 -965 185
-91 17 -171 35 -179 39 -14 7 -32 49 -181 436 -48 127 -172 448 -276 715 -275
711 -512 1326 -544 1410 -9 25 -79 205 -154 400 -200 516 -365 943 -609 1574
-68 176 -128 321 -135 324 -6 2 -16 -7 -21 -20z"/>
<path d="M3296 8352 c-26 -108 -92 -377 -146 -597 -242 -986 -224 -907 -209
-931 32 -52 353 -453 359 -449 4 3 19 39 35 82 76 218 228 640 234 651 9 16
-15 51 303 -448 135 -212 313 -491 396 -620 83 -129 204 -319 269 -422 65
-103 121 -184 125 -180 10 10 158 362 158 376 0 6 -94 184 -208 396 -115 212
-230 426 -256 475 -27 50 -74 137 -106 195 -31 58 -76 141 -100 185 -23 44
-55 103 -70 130 -15 28 -43 79 -62 115 -31 57 -110 204 -198 366 -15 28 -125
232 -245 455 -120 222 -221 407 -225 411 -3 5 -27 -81 -54 -190z"/>
<path d="M9235 8503 c-11 -21 -38 -72 -61 -113 -22 -41 -62 -115 -89 -165 -26
-49 -73 -137 -105 -195 -31 -58 -75 -139 -98 -180 -22 -41 -277 -513 -566
-1048 -290 -536 -528 -977 -529 -981 -1 -4 34 -93 78 -199 63 -152 82 -190 91
-180 7 7 137 209 290 448 152 239 376 590 497 780 121 190 236 369 255 399 25
40 36 51 42 40 4 -8 65 -177 136 -377 71 -199 132 -361 135 -360 7 3 342 427
360 456 8 13 -1 66 -40 222 -27 113 -93 381 -146 595 -191 783 -219 895 -225
895 -3 0 -14 -17 -25 -37z"/>
<path d="M2884 6673 c-3 -16 -14 -60 -24 -100 l-18 -72 174 -221 c173 -221
174 -222 185 -193 24 62 49 137 49 149 0 7 -36 59 -81 116 -44 57 -123 158
-176 226 -53 67 -97 122 -99 122 -2 0 -6 -12 -10 -27z"/>
<path d="M9532 6470 l-181 -230 30 -82 c17 -46 33 -85 36 -88 5 -5 23 15 113
130 32 41 97 124 144 184 47 60 86 118 86 128 0 17 -39 179 -45 186 -1 1 -83
-101 -183 -228z"/>
<path d="M2806 6350 c-3 -8 -21 -80 -40 -160 -19 -80 -78 -320 -131 -535 -53
-214 -114 -462 -135 -550 -21 -88 -75 -308 -120 -489 -44 -181 -79 -333 -78
-337 2 -4 81 56 177 134 l174 142 28 75 c15 41 75 208 133 370 57 162 154 434
215 604 61 170 111 316 111 325 0 9 -66 99 -146 201 -80 102 -154 196 -164
210 -15 20 -20 22 -24 10z"/>
<path d="M9630 6149 c-91 -116 -164 -216 -164 -223 1 -9 77 -223 428 -1202
l61 -172 175 -140 c96 -77 176 -139 178 -137 2 1 -22 103 -52 226 -30 123 -82
334 -115 469 -33 135 -90 367 -126 515 -37 149 -98 398 -136 555 -38 157 -72
293 -77 303 -6 14 -41 -26 -172 -194z"/>
</g>
</svg>
